<svg width="45" height="51" viewBox="0 0 45 51" fill="none" xmlns="http://www.w3.org/2000/svg">
<path d="M18.3555 21.3945C17.6729 21.3945 17.018 21.6696 16.5353 22.1591C16.0527 22.6486 15.7816 23.3126 15.7816 24.0048C15.7816 24.6971 16.0528 25.361 16.5354 25.8505C17.0181 26.34 17.6727 26.615 18.3553 26.615C19.0379 26.615 19.6925 26.34 20.1752 25.8505C20.6578 25.361 20.929 24.6971 20.929 24.0048C20.929 23.3126 20.6579 22.6486 20.1753 22.1591C19.6926 21.6696 19.038 21.3945 18.3555 21.3945ZM27.5326 21.3945C26.9705 21.3462 26.4072 21.4711 25.9163 21.7529C25.4254 22.0347 25.0299 22.4603 24.7815 22.9739C24.533 23.4875 24.4433 24.0652 24.524 24.6314C24.6047 25.1975 24.852 25.7258 25.2337 26.1471C25.6153 26.5683 26.1135 26.8629 26.6629 26.9922C27.2124 27.1215 27.7875 27.0795 28.3131 26.8718C28.8387 26.6641 29.2901 26.3003 29.6084 25.828C29.9267 25.3557 30.097 24.7969 30.0969 24.2249C30.112 23.8682 30.0575 23.512 29.9368 23.1767C29.816 22.8414 29.6312 22.5335 29.3931 22.2707C29.1549 22.0078 28.868 21.7951 28.5488 21.6448C28.2296 21.4945 27.8842 21.4094 27.5326 21.3945ZM39.7518 0H6.06072C5.38217 0.00162585 4.71058 0.138795 4.08431 0.403673C3.45803 0.668552 2.88934 1.05595 2.41069 1.54375C1.93205 2.03155 1.55284 2.6102 1.29471 3.24664C1.03657 3.88309 0.904582 4.56488 0.906266 5.25306V39.7291C0.904611 40.4172 1.03662 41.099 1.29477 41.7354C1.55291 42.3718 1.93213 42.9505 2.41077 43.4383C2.88941 43.926 3.45809 44.3134 4.08435 44.5783C4.71061 44.8432 5.38218 44.9804 6.06072 44.982H34.5725L33.2399 40.2644L36.4581 43.2989L39.5005 46.1549L44.9062 51V5.25306C44.9079 4.56488 44.7759 3.88309 44.5178 3.24664C44.2597 2.6102 43.8805 2.03155 43.4018 1.54375C42.9232 1.05595 42.3545 0.668552 41.7282 0.403673C41.1019 0.138795 40.4303 0.00162585 39.7518 0ZM30.0468 33.303C30.0468 33.303 29.1415 32.2065 28.3872 31.2375C30.2097 30.8023 31.8218 29.7274 32.9382 28.203C32.0336 28.8137 31.0636 29.3184 30.0468 29.7074C28.8771 30.2138 27.6538 30.5817 26.401 30.8039C24.2477 31.206 22.0394 31.1974 19.8892 30.7785C18.6268 30.5279 17.3896 30.1609 16.193 29.6821C15.5623 29.436 14.9491 29.1463 14.3576 28.8151C14.2821 28.7639 14.2069 28.7385 14.1314 28.6875C14.0936 28.6684 14.0595 28.6425 14.0308 28.6111C13.5785 28.3561 13.3266 28.1775 13.3266 28.1775C14.4027 29.6699 15.9591 30.7342 17.7267 31.1865C16.9727 32.1557 16.0423 33.303 16.0423 33.303C14.5488 33.3438 13.0683 33.0116 11.7311 32.3357C10.3939 31.6598 9.24097 30.6609 8.37387 29.427C8.45551 24.2574 9.69342 19.1741 11.9943 14.5604C14.0191 12.9476 16.4878 12.012 19.0593 11.8829L19.3106 12.1891C16.8912 12.7962 14.6336 13.9367 12.6983 15.5295C12.6983 15.5295 13.2515 15.2235 14.1816 14.79C15.989 13.9532 17.9153 13.4111 19.8894 13.1836C20.0301 13.1539 20.1732 13.1368 20.3169 13.1325C22.0018 12.9099 23.7068 12.8928 25.3956 13.0816C28.0516 13.3892 30.6225 14.2207 32.9636 15.5295C31.1264 14.0127 28.9926 12.9089 26.7034 12.291L27.0552 11.8832C29.6268 12.0121 32.0955 12.9477 34.1203 14.5607C36.4213 19.1742 37.6593 24.2575 37.741 29.4271C36.8668 30.6599 35.7089 31.6574 34.3679 32.3329C33.027 33.0084 31.5436 33.3414 30.0468 33.303Z" fill="#7F5AF0"/>
</svg>
